<svg xmlns="http://www.w3.org/2000/svg" width="40" height="39" viewBox="0 0 40 39"><g><g><path fill="#1fc96e" d="M17.87.444a8.69 8.69 0 0 1 8.69 8.69 8.69 8.69 0 1 1-8.69-8.69z"/></g><g><path fill="#1fc96e" d="M.771 33.243c0-6.903 4.098-12.835 9.992-15.53a11.119 11.119 0 0 0 4.663 2.289l2.443 4.23 2.444-4.23a11.12 11.12 0 0 0 4.662-2.29c5.893 2.696 9.991 8.628 9.991 15.53z"/></g><g><path fill="#fff" d="M31.408 38.885a8.402 8.402 0 1 1 0-16.805 8.402 8.402 0 0 1 0 16.805z"/></g><g><path fill="#1fc96e" d="M30.061 32.141l5.168-5.168a.813.813 0 1 1 1.15 1.148l-5.742 5.742-.002.001a.806.806 0 0 1-1.148 0h-.002v-.002L27.19 31.57a.813.813 0 1 1 1.15-1.149z"/></g></g></svg>