<svg xmlns="http://www.w3.org/2000/svg" width="37" height="36" viewBox="0 0 37 36"><g><g><path fill="#1fc96e" d="M34.866 26.086l-7.252-3.738a2.418 2.418 0 0 0-2.99.635l-2.654 3.402c-2.579-1.383-4.56-2.73-6.84-5.01-2.43-2.43-3.739-4.447-5.084-6.952l3.364-2.616c.897-.71 1.196-1.981.635-2.991l-3.7-7.214C9.672.33 8.065-.08 6.906.705L2.271 3.77a3.637 3.637 0 0 0-1.57 3.215c.074 1.308.261 2.953.56 4.112 1.346 5.158 4.561 10.503 9.084 15.026 4.523 4.56 9.868 7.775 15.026 9.12 1.16.3 2.804.45 4.15.562a3.64 3.64 0 0 0 3.252-1.645l2.99-4.672a2.362 2.362 0 0 0-.897-3.402z"/></g></g></svg>