<svg xmlns="http://www.w3.org/2000/svg" width="26" height="24" viewBox="0 0 26 24"><defs><linearGradient id="tjcka" x1="0" x2="25.97" y1="12.23" y2="12.23" gradientUnits="userSpaceOnUse"><stop offset="0" stop-color="#266fa5"/><stop offset="1" stop-color="#2f81bd"/></linearGradient><linearGradient id="tjckb" x1="0" x2="19.78" y1="18.55" y2="18.55" gradientUnits="userSpaceOnUse"><stop offset="0" stop-color="#266fa5"/><stop offset="1" stop-color="#2f81bd"/></linearGradient><linearGradient id="tjckc" x1="9.13" x2="10.65" y1="3.86" y2="3.86" gradientUnits="userSpaceOnUse"><stop offset="0" stop-color="#266fa5"/><stop offset="1" stop-color="#2f81bd"/></linearGradient></defs><g><g><path fill="url(#tjcka)" d="M16.662 17.113c-.154.326-.43.449-.784.449-2.069-.004-4.137-.002-6.206-.002-.414 0-.828.002-1.242-.001-.485-.003-.83-.328-.825-.77.006-.433.346-.749.819-.75 1.258-.003 2.517-.001 3.775-.001 1.241 0 2.482-.003 3.724.001.603.002.984.557.739 1.074zM6.149 13.452c.15-.325.421-.46.777-.46 1.757.004 3.514.002 5.271.002 1.749 0 3.498-.002 5.246.001.593.001.976.537.753 1.05-.139.318-.397.47-.744.47l-2.812.001h-3.092c-1.546 0-3.092 0-4.638-.002-.609 0-.997-.542-.761-1.062zM9.127 10.7c.007-.441.351-.749.845-.749.988-.002 1.975 0 2.963 0h2.939c.514 0 .859.306.861.757.001.452-.345.763-.857.763l-2.951.001-2.951-.001c-.506 0-.855-.32-.849-.771zM-.005 6.196c.015.091.035.18.044.271.059.579.089 1.163.176 1.738.696 4.657 2.69 8.674 5.968 12.055.225.233.476.347.805.347 6.027-.005 12.055-.005 18.081 0 .372 0 .672-.106.83-.459.165-.366.022-.661-.237-.937-.44-.468-.886-.933-1.288-1.432-3.053-3.797-4.629-8.12-4.595-13.01.004-.614-.288-.906-.893-.906H12.17c0 1.265.001 2.49-.001 3.716 0 .541-.307.848-.848.849-.947.002-1.894.001-2.841 0-.576 0-.875-.298-.875-.873V3.863h-.299c-2.096 0-4.192.009-6.289-.008H.999c-.462 0-.804.133-1.004.566z"/></g><g><path fill="url(#tjckb)" d="M-.005 23.09c.203.437.551.565 1.022.564 5.924-.01 11.849-.006 17.774-.006.084 0 .169.002.253-.002.357-.021.666-.258.711-.61.039-.295.009-.598.009-.91h-.323c-4.158 0-8.316-.003-12.474.002a2.452 2.452 0 0 1-1.834-.767 23.024 23.024 0 0 1-4.327-6.118c-.285-.589-.541-1.195-.811-1.792z"/></g><g><path fill="url(#tjckc)" d="M9.128 1.624c-.004 1.713-.002 3.428-.001 5.142 0 .04.008.08.012.129h1.508c0-1.802.005-3.583-.005-5.363-.003-.312-.186-.539-.479-.657a.76.76 0 0 0-.286-.057c-.403 0-.748.335-.749.806z"/></g></g></svg>