<svg xmlns="http://www.w3.org/2000/svg" width="17" height="16" viewBox="0 0 17 16"><g><g><path fill="#ed4545" d="M3.051 4.45c-.55 0-1.066.012-1.582-.003A.755.755 0 0 1 .798 3.4a.73.73 0 0 1 .664-.476c.066-.005.132-.003.198-.003l13.554.001c.119 0 .243 0 .357.031.372.101.591.45.544.844a.747.747 0 0 1-.726.651c-.45.01-.901.004-1.351.005h-.223v.243c0 2.973.001 5.946-.001 8.92 0 1.081-.625 1.966-1.613 2.263-.232.07-.483.105-.726.106a945.99 945.99 0 0 1-6.074.003c-1.357-.003-2.347-1-2.349-2.363-.002-2.973-.001-5.946-.001-8.92zm3.081 6.894c.005.165.064.346.151.486.173.277.533.38.845.281.331-.104.537-.4.538-.789.002-1.243.002-2.487-.001-3.73a1.031 1.031 0 0 0-.051-.317.75.75 0 0 0-.82-.503c-.39.06-.663.36-.667.753-.005.642-.001 1.285-.001 1.928 0 .63-.011 1.261.006 1.891zm4.609-3.754c-.001-.478-.323-.825-.765-.829-.437-.003-.774.346-.775.82a585.002 585.002 0 0 0 0 3.747c.001.474.338.824.775.821.442-.004.764-.35.765-.829V9.464 7.59z"/></g><g><path fill="#ed4545" d="M8.425 2.143c-.522 0-1.045.007-1.567-.002a.756.756 0 0 1-.728-.67.768.768 0 0 1 .727-.855c1.05 0 2.1-.006 3.15.002a.75.75 0 0 1 .729.67.76.76 0 0 1-.55.825c-.096.027-.201.03-.303.031-.486.003-.972.001-1.458.001z"/></g></g></svg>