<svg xmlns="http://www.w3.org/2000/svg" width="6" height="25" viewBox="0 0 6 25"><defs><linearGradient id="hfwia" x1=".91" x2="6.01" y1="3.19" y2="3.19" gradientUnits="userSpaceOnUse"><stop offset="0" stop-color="#266fa5"/><stop offset="1" stop-color="#2f81bd"/></linearGradient><linearGradient id="hfwib" x1=".91" x2="6.01" y1="12.38" y2="12.38" gradientUnits="userSpaceOnUse"><stop offset="0" stop-color="#266fa5"/><stop offset="1" stop-color="#2f81bd"/></linearGradient><linearGradient id="hfwic" x1=".91" x2="6.01" y1="21.56" y2="21.56" gradientUnits="userSpaceOnUse"><stop offset="0" stop-color="#266fa5"/><stop offset="1" stop-color="#2f81bd"/></linearGradient></defs><g><g><path fill="url(#hfwia)" d="M.911 3.194a2.548 2.548 0 0 0 5.095 0 2.548 2.548 0 0 0-5.095 0z"/></g><g><path fill="url(#hfwib)" d="M.911 12.38a2.548 2.548 0 0 0 5.095 0 2.547 2.547 0 1 0-5.095 0z"/></g><g><path fill="url(#hfwic)" d="M.911 21.565a2.548 2.548 0 0 0 5.095 0 2.547 2.547 0 1 0-5.095 0z"/></g></g></svg>