<svg xmlns="http://www.w3.org/2000/svg" width="17" height="13" viewBox="0 0 17 13"><g><g opacity=".3"><path fill="#829ead" d="M13.729.535c1.466 0 2.665 1.2 2.665 2.666v6.663a2.673 2.673 0 0 1-2.665 2.665H3.068A2.673 2.673 0 0 1 .402 9.864V3.2c0-1.466 1.2-2.666 2.666-2.666zM14.795 4.4c.267-.2.333-.6.2-.866-.2-.333-.6-.4-.933-.2l-5.264 3.53a.719.719 0 0 1-.733 0L2.8 3.335c-.333-.2-.733-.133-.933.133-.2.333-.133.733.133.933l5.264 3.532c.334.199.733.333 1.133.333s.8-.134 1.133-.333z"/></g></g></svg>