<svg xmlns="http://www.w3.org/2000/svg" width="18" height="16" viewBox="0 0 18 16"><g><g><path fill="#829ead" d="M1.508 3.256a.692.692 0 1 1 0-1.385h.974a2.252 2.252 0 0 1 4.284 0h9.977a.692.692 0 0 1 0 1.385H6.766a2.251 2.251 0 0 1-4.284 0zm1.904-.692a1.212 1.212 0 1 0 2.425-.001 1.212 1.212 0 0 0-2.425 0z"/></g><g><path fill="#829ead" d="M1.507 8.796a.692.692 0 0 1 0-1.385h10.004a2.252 2.252 0 0 1 4.284 0h.947a.693.693 0 1 1 0 1.385h-.947a2.252 2.252 0 0 1-4.284 0zm10.934-.692a1.212 1.212 0 1 0 2.425-.001 1.212 1.212 0 0 0-2.425 0z"/></g><g><path fill="#829ead" d="M1.508 14.336a.693.693 0 0 1 0-1.386h5.129a2.25 2.25 0 0 1 4.284 0h5.822a.692.692 0 0 1 0 1.386H10.92a2.252 2.252 0 0 1-4.284 0zm6.059-.693a1.212 1.212 0 1 0 2.423 0 1.212 1.212 0 0 0-2.423 0z"/></g></g></svg>