<svg xmlns="http://www.w3.org/2000/svg" width="18" height="17" viewBox="0 0 18 17"><g><g><path fill="#fff" d="M1.295 3.979a.943.943 0 0 1 0-1.884h.799A2.491 2.491 0 0 1 4.41.537c1.027 0 1.936.618 2.317 1.558h9.802a.943.943 0 0 1 0 1.884H6.728A2.494 2.494 0 0 1 4.41 5.537a2.493 2.493 0 0 1-2.317-1.558zm2.154-.942c0 .53.432.962.962.962s.962-.432.962-.962a.964.964 0 0 0-.962-.962.964.964 0 0 0-.962.962z"/></g><g><path fill="#fff" d="M16.53 7.634a.943.943 0 0 1 0 1.885h-.773a2.494 2.494 0 0 1-2.317 1.558 2.494 2.494 0 0 1-2.317-1.558H1.294a.943.943 0 0 1 0-1.885h9.83a2.493 2.493 0 0 1 2.316-1.557c1.027 0 1.936.618 2.317 1.557zm-2.128.943a.963.963 0 0 0-1.923 0c0 .53.432.962.962.962s.961-.432.961-.962z"/></g><g><path fill="#fff" d="M16.529 13.174a.943.943 0 0 1 0 1.885h-5.646a2.494 2.494 0 0 1-2.317 1.558 2.494 2.494 0 0 1-2.317-1.558H1.295a.943.943 0 0 1 0-1.885h4.954a2.494 2.494 0 0 1 2.317-1.558c1.027 0 1.936.62 2.317 1.558zm-7.001.942a.963.963 0 0 0-1.924 0 .963.963 0 0 0 1.924 0z"/></g></g></svg>