<svg xmlns="http://www.w3.org/2000/svg" width="40" height="40" viewBox="0 0 40 40"><g><g><path fill="#ef3737" d="M17.103.352a8.69 8.69 0 0 1 8.69 8.69 8.69 8.69 0 1 1-8.69-8.69z"/></g><g><path fill="#ef3737" d="M.005 33.15c0-6.902 4.098-12.834 9.992-15.53a11.119 11.119 0 0 0 4.663 2.29l2.443 4.23 2.444-4.23a11.12 11.12 0 0 0 4.662-2.29c5.893 2.696 9.99 8.628 9.99 15.53z"/></g><g><path fill="#fff" d="M31.236 39.201a8.402 8.402 0 1 1 .001-16.804 8.402 8.402 0 0 1 0 16.804z"/></g><g><path fill="#ea2424" d="M35.24 31.622h-8.087a.823.823 0 0 1 0-1.647h8.087a.823.823 0 0 1 0 1.647z"/></g></g></svg>