<svg xmlns="http://www.w3.org/2000/svg" width="41" height="41" viewBox="0 0 41 41"><g><g><path fill="#fc982b" d="M14.23 37.619c.107.124.13.297.065.446a.42.42 0 0 1-.38.243H2.8a2.495 2.495 0 0 1-2.495-2.495V8.367A2.495 2.495 0 0 1 2.8 5.872h17.478a2.495 2.495 0 0 1 2.495 2.495v8.578a.416.416 0 0 1-.128.3 4.989 4.989 0 0 0-1.535 3.597v8.691a.415.415 0 0 1-.639.351 4.99 4.99 0 0 0-6.527 7.394zm.617-22.534a3.53 3.53 0 1 0-7.059-.004 3.53 3.53 0 0 0 7.059.006zm1.548 9.3a.41.41 0 0 0 .39-.54 5.763 5.763 0 0 0-10.935 0 .416.416 0 0 0 .394.547z"/></g><g><path fill="#fc982b" d="M27.239 15.984a.416.416 0 0 0 .512-.404V4.209A3.327 3.327 0 0 0 24.425.882H5.295a1.663 1.663 0 0 0 0 3.327h18.298c.459 0 .832.372.832.832V15.58a.415.415 0 0 0 .512.404 5.001 5.001 0 0 1 2.302 0z"/></g><g><path fill="#fc982b" d="M40.226 37.476a6.653 6.653 0 0 0-6.653-6.653h-4.575a.416.416 0 0 1-.415-.416v-9.565a2.496 2.496 0 0 0-4.99 0v15.195a.416.416 0 0 1-.736.266l-3.167-3.817a2.495 2.495 0 0 0-3.84 3.185l4.286 4.975a.417.417 0 0 0 .316.145H39.81c.23 0 .416-.186.416-.416z"/></g></g></svg>