<svg xmlns="http://www.w3.org/2000/svg" width="17" height="17" viewBox="0 0 17 17"><defs><linearGradient id="4x9ja" x1="4.56" x2="6.15" y1="5.11" y2="5.11" gradientUnits="userSpaceOnUse"><stop offset="0" stop-color="#266fa5"/><stop offset="1" stop-color="#2f81bd"/></linearGradient><linearGradient id="4x9jb" x1="10.93" x2="12.52" y1="5.11" y2="5.11" gradientUnits="userSpaceOnUse"><stop offset="0" stop-color="#266fa5"/><stop offset="1" stop-color="#2f81bd"/></linearGradient><linearGradient id="4x9jc" x1="4.96" x2="12.12" y1="8.29" y2="8.29" gradientUnits="userSpaceOnUse"><stop offset="0" stop-color="#266fa5"/><stop offset="1" stop-color="#2f81bd"/></linearGradient></defs><g><g opacity=".15"><g opacity=".15"><path fill="#266fa5" d="M12.684 16.237H4.397a4 4 0 0 1-4-4V3.95a4 4 0 0 1 4-4h8.287a4 4 0 0 1 4 4v8.287a4 4 0 0 1-4 4z"/></g></g><g><path fill="url(#4x9ja)" d="M5.476 4.43l-.795.796a.398.398 0 0 0 .281.678.396.396 0 0 0 .281-.117l.795-.795a.395.395 0 0 0 0-.552.395.395 0 0 0-.562-.01z"/></g><g><path fill="url(#4x9jb)" d="M11.054 4.43a.396.396 0 0 0-.01.562l.795.795a.396.396 0 0 0 .562 0 .395.395 0 0 0 0-.561l-.796-.796a.393.393 0 0 0-.551 0z"/></g><g><path fill="url(#4x9jc)" d="M8.258 8.573a.417.417 0 0 1-.115-.283V7.097a.398.398 0 1 1 .796 0v1.03l.679.676a.398.398 0 1 1-.564.564zm.283 3.296A3.58 3.58 0 0 0 12.12 8.29a3.585 3.585 0 0 0-3.579-3.579 3.58 3.58 0 0 0 0 7.158z"/></g></g></svg>